# xmcd CD database file
#
# Track frame offsets:
#	150
#	20053
#	34291
#	51297
#	70243
#	85129
#	106861
#	121655
#	140094
#	159123
#	176540
#
# Disc length: 2540 seconds
#
# Revision: 3
# Processed by: cddbd v1.5.2PL0 Copyright (c) Steve Scherf et al.
# Submitted via: CDex 1.70beta2
#
DISCID=8d09ea0b
DTITLE=Tracy Chapman - Our Bright Future
DYEAR=2008
DGENRE=Pop
TTITLE0=Sing For You
TTITLE1=I Did It All
TTITLE2=Save Us All
TTITLE3=Our Bright Future
TTITLE4=For A Dream
TTITLE5=Thinking Of You
TTITLE6=A Theory
TTITLE7=Conditional
TTITLE8=Something To See
TTITLE9=The First Person On Earth
TTITLE10=Spring
EXTD=YEAR: 2008
EXTT0=
EXTT1=
EXTT2=
EXTT3=
EXTT4=
EXTT5=
EXTT6=
EXTT7=
EXTT8=
EXTT9=
EXTT10=
PLAYORDER=
